<svg width="512" height="512" viewBox="0 0 512 512" fill="none" xmlns="http://www.w3.org/2000/svg">
  <rect width="512" height="512" rx="128" fill="#2563EB"/>
  <path d="M256 96C176.5 96 112 160.5 112 240C112 319.5 176.5 384 256 384C335.5 384 400 319.5 400 240C400 160.5 335.5 96 256 96ZM328.7 328.7C308.9 348.5 282.7 360 256 360C229.3 360 203.1 348.5 183.3 328.7C163.5 308.9 152 282.7 152 256C152 229.3 163.5 203.1 183.3 183.3C203.1 163.5 229.3 152 256 152C282.7 152 308.9 163.5 328.7 183.3C348.5 203.1 360 229.3 360 256C360 282.7 348.5 308.9 328.7 328.7Z" fill="white"/>
  <path d="M272 176H240V272H336V240H272V176Z" fill="white"/>
</svg> 